<svg xmlns="http://www.w3.org/2000/svg" xmlns:xlink="http://www.w3.org/1999/xlink"><symbol id="icon-close" viewBox="0 0 24 24"><path d="M23.954 21.03l-9.184-9.095 9.092-9.174L21.03-.046l-9.09 9.179L2.764.045l-2.81 2.81L9.14 11.96.045 21.144l2.81 2.81 9.112-9.192 9.18 9.1z"/></symbol><symbol id="icon-dislike" viewBox="0 0 24 24"><path d="M5 14H0V2h5v12zm18.875-4.809c0-.646-.555-1.32-1.688-1.41-.695-.055-.868-.623-.031-.812.701-.159 1.098-.652 1.098-1.181 0-.629-.559-1.309-1.826-1.543-.766-.141-.842-.891-.031-.953.688-.053.96-.291.96-.626C22.356 1.735 20.703 0 17.505 0 13.345 0 11.382 2.067 7 2.768v10.878c2.375.869 4.466 2.644 5.688 6.886.478 1.661.781 3.468 2.374 3.468 2.375 0 2.594-5.125 1.688-8.781 1.312-.688 3.751-.936 4.979-.885 1.771.072 2.271-.818 2.271-1.49 0-1.011-.833-1.35-1.354-1.51-.609-.188-.889-.807-.031-.922.836-.112 1.26-.656 1.26-1.221z"/></symbol><symbol id="icon-heart" viewBox="0 0 24 26"><path d="M12 4.248C8.852-1.154 0 .423 0 7.192 0 11.853 5.571 16.619 12 23c6.43-6.381 12-11.147 12-15.808C24 .4 15.125-1.114 12 4.248z"/></symbol><symbol id="icon-like" viewBox="0 0 24 24"><path d="M5 22H0V10h5v12zm17.615-8.412c-.857-.115-.578-.734.031-.922.521-.16 1.354-.5 1.354-1.51 0-.672-.5-1.562-2.271-1.49-1.228.05-3.666-.198-4.979-.885C17.656 5.125 17.438 0 15.062 0c-1.594 0-1.896 1.807-2.375 3.469C11.466 7.711 9.375 9.486 7 10.354v10.878C11.382 21.933 13.345 24 17.505 24c3.198 0 4.852-1.735 4.852-2.666 0-.335-.272-.573-.96-.626-.811-.062-.734-.812.031-.953 1.268-.234 1.826-.914 1.826-1.543 0-.529-.396-1.022-1.098-1.181-.837-.189-.664-.757.031-.812 1.133-.09 1.688-.764 1.688-1.41 0-.565-.424-1.109-1.26-1.221z"/></symbol><symbol id="icon-play" viewBox="-2 0 24 24"><path d="M3 22V2l18 10L3 22z"/></symbol></svg>